<svg xmlns="http://www.w3.org/2000/svg" viewBox="0 0 64 64" role="img" aria-label="AB monogram">
  <rect width="64" height="64" rx="14" fill="#020617" />
  <path d="M12 48V16h6l12 32h-6l-2.6-7.2H10.6L8 48H12Zm.3-12.2h7.4L16 25.4l-3.7 10.4Z" fill="#F8FAFC" />
  <path d="M33 48V16h13.2c3.4 0 6.1.8 7.9 2.3 1.9 1.5 2.8 3.7 2.8 6.5 0 1.7-.4 3.1-1.2 4.3-.8 1.2-1.9 2.1-3.4 2.7 1.8.5 3.2 1.4 4.2 2.8s1.5 3.1 1.5 5.1c0 2.7-1 4.8-2.9 6.2-1.9 1.4-4.7 2.1-8.3 2.1H33Zm6.2-18.6h6.6c1.6 0 2.8-.3 3.6-1 .8-.7 1.2-1.7 1.2-3s-.4-2.4-1.3-3c-.8-.7-2.1-1-3.8-1h-6.3v8Zm0 13.2h7.2c1.7 0 3-.3 3.9-1 .9-.7 1.3-1.8 1.3-3.2 0-1.5-.4-2.6-1.3-3.3-.9-.7-2.2-1.1-4-1.1h-7.1v8.6Z" fill="#38BDF8" />
  <path d="M9 54h46" stroke="#38BDF8" stroke-width="3" stroke-linecap="round" opacity="0.85" />
</svg>
